<svg width="25" height="24" viewBox="0 0 25 24" fill="none" xmlns="http://www.w3.org/2000/svg">
<path d="M21.6744 9.63937C21.3209 9.27 20.9553 8.88938 20.8175 8.55469C20.69 8.24813 20.6825 7.74 20.675 7.24781C20.6609 6.33281 20.6459 5.29594 19.925 4.575C19.2041 3.85406 18.1672 3.83906 17.2522 3.825C16.76 3.8175 16.2519 3.81 15.9453 3.6825C15.6116 3.54469 15.23 3.17906 14.8606 2.82562C14.2137 2.20406 13.4788 1.5 12.5 1.5C11.5212 1.5 10.7872 2.20406 10.1394 2.82562C9.77 3.17906 9.38938 3.54469 9.05469 3.6825C8.75 3.81 8.24 3.8175 7.74781 3.825C6.83281 3.83906 5.79594 3.85406 5.075 4.575C4.35406 5.29594 4.34375 6.33281 4.325 7.24781C4.3175 7.74 4.31 8.24813 4.1825 8.55469C4.04469 8.88844 3.67906 9.27 3.32562 9.63937C2.70406 10.2863 2 11.0212 2 12C2 12.9788 2.70406 13.7128 3.32562 14.3606C3.67906 14.73 4.04469 15.1106 4.1825 15.4453C4.31 15.7519 4.3175 16.26 4.325 16.7522C4.33906 17.6672 4.35406 18.7041 5.075 19.425C5.79594 20.1459 6.83281 20.1609 7.74781 20.175C8.24 20.1825 8.74813 20.19 9.05469 20.3175C9.38844 20.4553 9.77 20.8209 10.1394 21.1744C10.7863 21.7959 11.5212 22.5 12.5 22.5C13.4788 22.5 14.2128 21.7959 14.8606 21.1744C15.23 20.8209 15.6106 20.4553 15.9453 20.3175C16.2519 20.19 16.76 20.1825 17.2522 20.175C18.1672 20.1609 19.2041 20.1459 19.925 19.425C20.6459 18.7041 20.6609 17.6672 20.675 16.7522C20.6825 16.26 20.69 15.7519 20.8175 15.4453C20.9553 15.1116 21.3209 14.73 21.6744 14.3606C22.2959 13.7137 23 12.9788 23 12C23 11.0212 22.2959 10.2872 21.6744 9.63937ZM20.5916 13.3228C20.1425 13.7916 19.6775 14.2763 19.4309 14.8716C19.1947 15.4434 19.1844 16.0969 19.175 16.7297C19.1656 17.3859 19.1553 18.0731 18.8638 18.3638C18.5722 18.6544 17.8897 18.6656 17.2297 18.675C16.5969 18.6844 15.9434 18.6947 15.3716 18.9309C14.7763 19.1775 14.2916 19.6425 13.8228 20.0916C13.3541 20.5406 12.875 21 12.5 21C12.125 21 11.6422 20.5387 11.1772 20.0916C10.7122 19.6444 10.2238 19.1775 9.62844 18.9309C9.05656 18.6947 8.40313 18.6844 7.77031 18.675C7.11406 18.6656 6.42688 18.6553 6.13625 18.3638C5.84562 18.0722 5.83437 17.3897 5.825 16.7297C5.81562 16.0969 5.80531 15.4434 5.56906 14.8716C5.3225 14.2763 4.8575 13.7916 4.40844 13.3228C3.95937 12.8541 3.5 12.375 3.5 12C3.5 11.625 3.96125 11.1422 4.40844 10.6772C4.85562 10.2122 5.3225 9.72375 5.56906 9.12844C5.80531 8.55656 5.81562 7.90313 5.825 7.27031C5.83437 6.61406 5.84469 5.92688 6.13625 5.63625C6.42781 5.34562 7.11031 5.33437 7.77031 5.325C8.40313 5.31562 9.05656 5.30531 9.62844 5.06906C10.2238 4.8225 10.7084 4.3575 11.1772 3.90844C11.6459 3.45937 12.125 3 12.5 3C12.875 3 13.3578 3.46125 13.8228 3.90844C14.2878 4.35562 14.7763 4.8225 15.3716 5.06906C15.9434 5.30531 16.5969 5.31562 17.2297 5.325C17.8859 5.33437 18.5731 5.34469 18.8638 5.63625C19.1544 5.92781 19.1656 6.61031 19.175 7.27031C19.1844 7.90313 19.1947 8.55656 19.4309 9.12844C19.6775 9.72375 20.1425 10.2084 20.5916 10.6772C21.0406 11.1459 21.5 11.625 21.5 12C21.5 12.375 21.0387 12.8578 20.5916 13.3228ZM16.7806 9.21937C16.8504 9.28903 16.9057 9.37175 16.9434 9.46279C16.9812 9.55384 17.0006 9.65144 17.0006 9.75C17.0006 9.84856 16.9812 9.94616 16.9434 10.0372C16.9057 10.1283 16.8504 10.211 16.7806 10.2806L11.5306 15.5306C11.461 15.6004 11.3783 15.6557 11.2872 15.6934C11.1962 15.7312 11.0986 15.7506 11 15.7506C10.9014 15.7506 10.8038 15.7312 10.7128 15.6934C10.6217 15.6557 10.539 15.6004 10.4694 15.5306L8.21937 13.2806C8.07864 13.1399 7.99958 12.949 7.99958 12.75C7.99958 12.551 8.07864 12.3601 8.21937 12.2194C8.36011 12.0786 8.55098 11.9996 8.75 11.9996C8.94902 11.9996 9.13989 12.0786 9.28063 12.2194L11 13.9397L15.7194 9.21937C15.789 9.14964 15.8717 9.09432 15.9628 9.05658C16.0538 9.01884 16.1514 8.99941 16.25 8.99941C16.3486 8.99941 16.4462 9.01884 16.5372 9.05658C16.6283 9.09432 16.711 9.14964 16.7806 9.21937Z" fill="#45B442"/>
</svg>
